# xmcd CD database file
#
# Track frame offsets:
#	150
#	25162
#	44635
#	66927
#	94330
#	125752
#	146455
#	165675
#	196182
#	216315
#	233540
#
# Disc length: 3349 seconds
#
# Revision: 2
# Processed by: cddbd v1.5.1PL0 Copyright (c) Steve Scherf et al.
# Submitted via: CDex 1.51
#
DISCID=a00d130b
DTITLE=Praying Mantis - To The Power Of Ten
DYEAR=1900
DGENRE=Hard Rock
TTITLE0=Don't Be Afraid Of The Dark
TTITLE1=Bring On The Night
TTITLE2=Ball Of Confusion
TTITLE3=Welcome To My Hollywood
TTITLE4=Another Time, Another Place
TTITLE5=To The Power Of Ten
TTITLE6=Little Angel
TTITLE7=Victory
TTITLE8=Only The Children Cry
TTITLE9=Night And Day
TTITLE10=Angry Man
EXTD=
EXTT0=
EXTT1=
EXTT2=
EXTT3=
EXTT4=
EXTT5=
EXTT6=
EXTT7=
EXTT8=
EXTT9=
EXTT10=
PLAYORDER=
